# xmcd
#
# Track frame offsets:
# 150
# 21897
# 43812
# 55062
# 71817
# 87492
# 110552
# 127732
# 131442
# 153105
# 182017
# 199130
# 222755
#
# Disc length: 3258 seconds
#
# Revision: 0
# Processed by: cddbd v1.5.1PL0 Copyright (c) Steve Scherf et al.
# Submitted via: MacMP3 Pro 5.0 (http://mp3.act2.co.jp/)
#
DISCID=b30cb80d
DTITLE=The Brothers Johnson - A&M Gold Series
DYEAR=1900
DGENRE=
TTITLE0=I'll Be Good To You
TTITLE1=Thunder Thumbs And Lightin' Licks
TTITLE2=Get The Funk Out Ma Face
TTITLE3=Right On Time
TTITLE4="Q"
TTITLE5=Runnin' For Your Lovin'
TTITLE6=Strawberry Letter 23
TTITLE7=Rocket Countdown/Blastoff
TTITLE8=Ride-O-Rocket
TTITLE9=Stomp
TTITLE10=Smilin' On Ya
TTITLE11=This Had To Be
TTITLE12=I'm Giving You All Of My Love
EXTD=
EXTT0=
EXTT1=
EXTT2=
EXTT3=
EXTT4=
EXTT5=
EXTT6=
EXTT7=
EXTT8=
EXTT9=
EXTT10=
EXTT11=
EXTT12=
PLAYORDER=
